<?xml version="1.0" encoding="utf-8"?>
<!-- Generator: Adobe Illustrator 21.0.0, SVG Export Plug-In . SVG Version: 6.00 Build 0)  -->
<svg version="1.1" id="Layer_1" xmlns="http://www.w3.org/2000/svg" xmlns:xlink="http://www.w3.org/1999/xlink" x="0px" y="0px"
	 viewBox="0 0 183.2 184.2" style="enable-background:new 0 0 183.2 184.2;" xml:space="preserve">
<style type="text/css">
	.st0{fill:#CC071A;}
</style>
<title>logo</title>
<path class="st0" d="M7.3,112.4C-5.9,68.2,24.1,19.3,71.2,7.9c61.8-14.8,118.7,39.6,105.9,101.4c-0.4,1.6-1,3.1-1.6,4.6
	c-0.7,0.4-1.6,0.8-2.3,0.3c-9-6.6-20.1-8.2-29.8-13.1c-3.7-1.9-7-2.7-10.9-1c-5.5,2.4-10.7,1.2-15.6-2c-6-3.8-11.5-8.3-16.3-13.6
	c-5.5-6.4-9-5.6-15.6-0.2c-9.6,8-20,14.9-31.1,20.9c-3,1.6-6.4,1.9-9.6,0.9c-12-4.1-21.9,1.6-32,6.3C10.6,113.3,8.9,114.5,7.3,112.4
	z"/>
<path d="M7.3,112.4c6.9-7.7,18.7-4.2,25.7-11.4c1.5-1.6,3-0.6,4.4,0c11.5,4.7,20.3,3.1,28.5-5.9c2.4-2.9,5.7-5,9.4-6
	c3.7-1.1,6.9-3.4,9-6.6c5.1-6.8,13-6.6,17.9,0.3c5.3,7.4,13.2,11.6,20.5,16.5c3.1,2.1,6.9,0.4,10.1-1.4c3.7-2.1,6.9-2.2,10.4,0.9
	c2.9,2.5,6.5,4,10.3,4.2c8.8,0.5,15,6.6,22,11.1c-7.7,39.7-52.4,70.1-94.5,64C44,172.7,13.9,145.9,7.3,112.4z"/>
</svg>
